<?xml version="1.0" standalone="no"?>
<!DOCTYPE svg PUBLIC "-//W3C//DTD SVG 20010904//EN"
 "http://www.w3.org/TR/2001/REC-SVG-20010904/DTD/svg10.dtd">
<svg version="1.0" xmlns="http://www.w3.org/2000/svg"
 width="288.000000pt" height="288.000000pt" viewBox="0 0 288.000000 288.000000"
 preserveAspectRatio="xMidYMid meet">

<g transform="translate(0.000000,288.000000) scale(0.100000,-0.100000)"
fill="#000000" stroke="none">
<path d="M1194 2861 c-194 -35 -409 -122 -572 -233 -99 -67 -302 -271 -369
-369 -336 -493 -336 -1145 0 -1638 66 -98 270 -302 368 -368 493 -336 1145
-336 1638 0 98 66 302 270 368 368 336 493 336 1145 0 1638 -66 98 -270 302
-368 368 -307 209 -706 297 -1065 234z m433 -541 c69 -30 105 -62 135 -116 74
-136 25 -288 -116 -362 -46 -24 -61 -27 -156 -27 -91 0 -111 3 -150 24 -124
64 -180 177 -150 300 23 95 98 166 209 198 61 17 169 9 228 -17z m138 -1365
c-23 -105 -66 -188 -133 -255 -66 -66 -129 -101 -234 -130 -77 -21 -293 -48
-304 -37 -3 3 5 30 19 59 72 156 77 201 77 745 0 336 3 473 11 473 6 0 24 -9
40 -21 82 -58 237 -82 352 -55 71 17 160 57 174 78 4 7 9 -167 11 -387 2 -332
0 -412 -13 -470z"/>
</g>
</svg>
